<?xml version="1.0" encoding="UTF-8" standalone="no"?>
<!-- Created with Inkscape (http://www.inkscape.org/) -->

<svg
   xmlns:dc="http://purl.org/dc/elements/1.1/"
   xmlns:cc="http://creativecommons.org/ns#"
   xmlns:rdf="http://www.w3.org/1999/02/22-rdf-syntax-ns#"
   xmlns:svg="http://www.w3.org/2000/svg"
   xmlns="http://www.w3.org/2000/svg"
   xmlns:sodipodi="http://sodipodi.sourceforge.net/DTD/sodipodi-0.dtd"
   xmlns:inkscape="http://www.inkscape.org/namespaces/inkscape"
   width="1080px"
   height="1080px"
   viewBox="0 0 1080 1080"
   version="1.1"
   id="SVGRoot"
   inkscape:version="0.92.3 (2405546, 2018-03-11)"
   sodipodi:docname="ancora.svg"
   inkscape:export-filename="C:\Users\Usuario\Documents\Allan\Documentos\GitHub\Html_Css_Js\Quadros de Marinha\ancora.png"
   inkscape:export-xdpi="45.55442"
   inkscape:export-ydpi="45.55442">
  <title
     id="title3774">Ancora</title>
  <sodipodi:namedview
     id="base"
     pagecolor="#ffffff"
     bordercolor="#666666"
     borderopacity="1.0"
     inkscape:pageopacity="0.0"
     inkscape:pageshadow="2"
     inkscape:zoom="0.49497475"
     inkscape:cx="222.90548"
     inkscape:cy="561.40536"
     inkscape:document-units="px"
     inkscape:current-layer="layer1"
     showgrid="false"
     inkscape:window-width="1360"
     inkscape:window-height="705"
     inkscape:window-x="-8"
     inkscape:window-y="-8"
     inkscape:window-maximized="1"
     inkscape:snap-global="true" />
  <defs
     id="defs3737" />
  <metadata
     id="metadata3740">
    <rdf:RDF>
      <cc:Work
         rdf:about="">
        <dc:format>image/svg+xml</dc:format>
        <dc:type
           rdf:resource="http://purl.org/dc/dcmitype/StillImage" />
        <dc:title>Ancora</dc:title>
      </cc:Work>
    </rdf:RDF>
  </metadata>
  <g
     id="layer1"
     inkscape:groupmode="layer"
     inkscape:label="Camada 1">
    <path
       style="fill:#000000;fill-opacity:0.5678392;stroke-width:1.10061026"
       d="m 556.36959,1.1266588 a 89.621124,89.621124 0 0 0 -89.62083,89.6208312 89.621124,89.621124 0 0 0 56.5059,83.19711 l -4.48537,76.85774 h -43.64036 -2.85632 c -1.46198,0 -2.90038,0.0941 -4.31664,0.25912 a 62.852264,36.360813 0 0 0 -55.67832,36.10183 62.852264,36.360813 0 0 0 50.33525,35.59363 c 3.07619,0.83351 6.31266,1.28555 9.65971,1.28555 h 42.22425 l -30.48359,522.40287 c -1.10154,-0.15275 -2.65143,-0.36557 -2.65143,-0.36557 0,0 -71.1624,-15.06355 -134.79382,-50.38548 -63.63143,-35.32193 -42.07562,-57.39775 -42.07562,-57.39775 0,0 17.92208,-25.19201 -4.93329,-42.85297 -22.85537,-17.66098 -83.36985,-79.99528 -83.36985,-79.99528 0,0 -7.40654,-10.14385 -15.2438,-10.5877 -4.70235,-0.26631 -9.56018,2.95863 -13.06639,13.96426 -9.34994,29.34837 -7.53253,38.69905 -7.53253,38.69905 0,0 0.51985,26.49075 1.55874,30.64628 1.03887,4.15551 2.09541,19.34067 4.15593,28.82843 4.84323,22.30091 16.10232,62.07356 19.21896,65.70963 3.11664,3.63607 6.2176,13.69497 9.86859,20.25944 11.13772,20.0256 23.18572,39.61539 36.62208,58.17712 11.46545,15.83903 23.56699,31.37093 37.39942,45.19106 14.61665,14.60363 31.00062,27.43119 47.78828,39.47639 10.42368,7.47903 21.17245,13.41895 32.72525,20.25944 11.5528,6.8405 23.16673,12.60358 35.32045,17.66024 16.02533,6.66755 49.347,16.62167 49.347,16.62167 l 20.92432,4.381 c 2.44792,8.4761 5.32263,15.8242 8.29782,20.856 10.82307,18.3047 49.04331,50.176 72.79621,54.4691 23.7529,-4.2931 61.97314,-36.1644 72.79621,-54.4691 2.9752,-5.0318 5.84989,-12.3799 8.29782,-20.856 l 20.92432,-4.381 c 0,0 33.32168,-9.95412 49.34701,-16.62167 12.15372,-5.05666 23.76765,-10.81974 35.32044,-17.66024 11.5528,-6.84049 22.30157,-12.78041 32.72526,-20.25944 16.78765,-12.0452 33.17163,-24.87276 47.78827,-39.47639 13.83243,-13.82013 25.93398,-29.35203 37.39942,-45.19106 13.43637,-18.56173 25.48437,-38.15152 36.62209,-58.17712 3.65098,-6.56447 6.75195,-16.62337 9.86859,-20.25944 3.11664,-3.63607 14.37573,-43.40872 19.21895,-65.70963 2.06053,-9.48776 3.11708,-24.67292 4.15594,-28.82843 1.03887,-4.15553 1.55873,-30.64628 1.55873,-30.64628 0,0 1.81741,-9.35068 -7.53252,-38.69905 -3.50621,-11.00563 -8.36404,-14.23057 -13.0664,-13.96426 -7.83726,0.44385 -15.24379,10.5877 -15.24379,10.5877 0,0 -60.51449,62.3343 -83.36986,79.99528 -22.85536,17.66096 -4.93329,42.85297 -4.93329,42.85297 0,0 21.55582,22.07582 -42.07561,57.39775 -63.63142,35.32193 -134.79382,50.38548 -134.79382,50.38548 0,0 -1.54989,0.21282 -2.65144,0.36557 L 598.24233,324.04247 h 42.22425 c 3.34705,0 6.58352,-0.45204 9.65969,-1.28555 a 62.852264,36.360813 0 0 0 50.33527,-35.59363 62.852264,36.360813 0 0 0 -55.67832,-36.10183 c -1.41626,-0.16499 -2.85466,-0.25912 -4.31664,-0.25912 H 637.61025 593.9699 L 589.48453,173.9446 A 89.621124,89.621124 0 0 0 645.99043,90.74749 89.621124,89.621124 0 0 0 556.36959,1.1266588 Z m 0,56.9297292 a 32.689672,32.689672 0 0 1 32.69111,32.691102 32.689672,32.689672 0 0 1 -32.69111,32.6891 32.689672,32.689672 0 0 1 -32.69111,-32.6891 32.689672,32.689672 0 0 1 32.69111,-32.691102 z"
       id="path3768"
       inkscape:connector-curvature="0" />
  </g>
</svg>
